# Blender 4.1.1
# www.blender.org
mtllib JungleSavanna.mtl
o Cube
v 1.000000 0.125000 -1.000000
v 1.000000 -0.125000 -1.000000
v 1.000000 0.125000 1.000000
v 1.000000 -0.125000 1.000000
v -1.000000 0.125000 -1.000000
v -1.000000 -0.125000 -1.000000
v -1.000000 0.125000 1.000000
v -1.000000 -0.125000 1.000000
vn -0.0000 1.0000 -0.0000
vn -0.0000 -0.0000 1.0000
vn -1.0000 -0.0000 -0.0000
vn -0.0000 -1.0000 -0.0000
vn 1.0000 -0.0000 -0.0000
vn -0.0000 -0.0000 -1.0000
vt 1.000000 0.941176
vt 0.000000 0.941176
vt 0.000000 0.470588
vt 1.000000 0.470588
vt 1.000000 0.941176
vt 1.000000 1.000000
vt 0.000000 1.000000
vt 0.000000 0.941176
vt 0.000000 0.000000
vt 1.000000 0.000000
vt 1.000000 0.470588
vt 0.000000 0.470588
s 0
usemtl Material
f 1/1/1 5/2/1 7/3/1 3/4/1
f 4/5/2 3/6/2 7/7/2 8/8/2
f 8/5/3 7/6/3 5/7/3 6/8/3
f 6/9/4 2/10/4 4/11/4 8/12/4
f 2/5/5 1/6/5 3/7/5 4/8/5
f 6/5/6 5/6/6 1/7/6 2/8/6
